# xmcd
#
# Track frame offsets:
#	150
#	8685
#	20818
#	30970
#	42682
#	54129
#	68769
#	78589
#	92441
#	104833
#	116091
#	128964
#	139525
#	149517
#	160945
#	171049
#	184028
#	194838
#	206131
#	214655
#	226394
#	236780
#	245996
#	257624
#	269991
#	283484
#	298448
#	308084
#	320067
#	333157
#	344459
#	353683
#
# Disc length: 4882 seconds
#
# Revision: 1
# Processed by: cddbd v1.5.2PL0 Copyright (c) Steve Scherf et al.
# Submitted via: audiograbber 1.83.01
#
DISCID=05131020
DTITLE=Various Artist - I Like It Like That
DYEAR=2012
DGENRE=Soul
TTITLE0=Chris Kenner - I Like It Like That
TTITLE1=Little Willie John - Fever
TTITLE2=Dave Bartholomew - My Ding-A-Ling
TTITLE3=Fats Domino - Sick And Tired
TTITLE4=Jimmy Donley - I Can't Love You Like You Want Me To Do
TTITLE5=Amos Milburn and His Aladdin Chickenshackers - One Scotch, One Bourbon, O
TTITLE5=ne Beer
TTITLE6=Smiley Lewis - Caldonia's Party
TTITLE7=Louis Jordan and His Tympany Five - Ain't Nobody Here But Us Chickens
TTITLE8=Wynonie Harris - Good Rockin' Tonight
TTITLE9=The Dominoes - Sixty Minute Man
TTITLE10=The Du-Droppers - Can't Do Sixty No More
TTITLE11=The Coasters - Young Blood
TTITLE12=Louis Prima with Sam Butera and The Witnesses - Beep! Beep!
TTITLE13=Little Richard - The Girl Can't Help It
TTITLE14=Carl Mann - Ubangi Stomp
TTITLE15=Jerry Reed - Rockin' In Bagdad
TTITLE16=The Everly Brothers - ('Til) I Kissed You
TTITLE17=Elvis Presley - I Forgot To Remember To Forget
TTITLE18=Ricky Nelson - Stood Up
TTITLE19=Tennessee Ernie Ford - The Shot Gun Boogie
TTITLE20=Jimmy Drittwood - Goodbye Reb, Y'all Come
TTITLE21=Johnny Horton - Ole Slew Foot
TTITLE22=Don Gibson - Sea Of Heartbreak
TTITLE23=Dean Martin - My Rifle, My Pony And Me
TTITLE24=Robert Mitchum - From A Logical Point Of View
TTITLE25=Harry Belafonte - Love, Love Alone
TTITLE26=Andy Williams - House Of Bamboo
TTITLE27=Rosemary Clooney and Perez Prado - Sway
TTITLE28=Gene Vincent and The Blue Caps - Summertime
TTITLE29=Wade Ray - I Need A Good Girl Bad
TTITLE30=Del Shannon - Hats Off To Larry
TTITLE31=Bill Haley and His Comets - See You Later Alligator
EXTD=
EXTT0=
EXTT1=
EXTT2=
EXTT3=
EXTT4=
EXTT5=
EXTT6=
EXTT7=
EXTT8=
EXTT9=
EXTT10=
EXTT11=
EXTT12=
EXTT13=
EXTT14=
EXTT15=
EXTT16=
EXTT17=
EXTT18=
EXTT19=
EXTT20=
EXTT21=
EXTT22=
EXTT23=
EXTT24=
EXTT25=
EXTT26=
EXTT27=
EXTT28=
EXTT29=
EXTT30=
EXTT31=
PLAYORDER=
